<?xml version="1.0" encoding="UTF-8"?>
<svg id="Livello_1" data-name="Livello 1" xmlns="http://www.w3.org/2000/svg" viewBox="0 0 33.56 16.48">
  <defs>
    <style>
      .cls-1 {
        fill: #fff;
      }
    </style>
  </defs>
  <path class="cls-1" d="M8.23,2.25c.15-.16.41-.32.62-.37.44-.12.85.08,1.25-.05s.55-.81,1.2-.98c.56-.15.72.15,1.17.22.79.12.9-.85,1.71-.87.42,0,.94.53,1.29.51.42-.03.62-.66,1.21-.7.74-.05.98.58,1.44.61.49.04.78-.52,1.38-.41.52.1.84.77,1.13.82.45.09.94-.31,1.47-.22.68.12.72.85,1.15,1.03.48.2,1.03-.23,1.61.11.37.22.41.56.61.88.35.56.59.23,1.12.41.31.1.68.4.87.66.18.25.3.77.45.9.16.14.69.21.97.38.66.41.64.88.85,1.51.16.48.71.43,1.08.78.5.48.41.88.47,1.48.05.53.61.67.93,1.07.28.36.38.79.32,1.25-.02.16-.13.31-.14.47-.02.5.5.73.74,1.12.91,1.47.35,3.57-1.59,3.64H1.88c-1.73-.23-2.17-1.6-1.7-3.15.2-.66.46-.67.77-1.13s.06-.65.02-1.09.08-.81.35-1.14c.36-.44.8-.37.86-1.04.06-.72-.02-1.09.63-1.6.37-.29.76-.19.9-.68.18-.62.06-.93.63-1.41.4-.33.58-.25.99-.4.33-.12.35-.61.53-.91.21-.35.69-.7,1.09-.76.2-.03.57.03.71-.03.11-.05.41-.71.57-.89ZM29.21,7.51c-.44-.47-.26-1.25-.72-1.58s-.92-.05-1.34-.66c-.2-.3-.27-.82-.52-1.06-.47-.44-1.13.07-1.7-.66-.13-.17-.44-.86-.55-.89-.16-.05-.65.09-.87.09-.42,0-.82-.16-1.09-.49-.15-.18-.26-.57-.5-.62-.21-.04-.54.15-.75.2-.43.1-.86.05-1.22-.22-.32-.23-.39-.67-.85-.5-.49.17-.56.46-1.25.37-.44-.06-.78-.59-1.02-.6s-.43.3-.64.43c-.39.24-.74.28-1.18.14-.24-.07-.62-.36-.82-.36-.22,0-.48.44-.7.57-.41.25-.9.29-1.36.17-.25-.06-.36-.23-.66-.15-.24.06-.49.61-.73.8-.61.49-1.3.02-1.76.28-.29.17-.38.83-.82,1.08-.39.21-.62.09-.99.17-.91.19-.5,1.36-1.43,1.64-.45.14-.89-.03-1.06.57-.15.55-.04,1-.58,1.41-.37.28-.95.24-1.04.81-.07.44.12.7-.15,1.24-.25.49-.59.49-.88.79-.37.38-.09.65-.05,1.06.11,1.21-.63,1.17-.92,1.91-.37.97-.23,2.28,1.1,2.14C3.13,10.1,6.4,4.98,11.94,3.29c3.56-1.09,6.94-.99,10.38.45,4.88,2.04,8.3,6.6,9.12,11.81.29.1.83-.08,1.02-.33.32-.42.2-1.39,0-1.85s-.79-.64-.89-1.29c-.08-.49.1-.72.13-1.11.05-.63-.82-.74-1.12-1.33-.25-.49-.12-.79-.18-1.26-.08-.53-.83-.5-1.19-.88ZM30.59,15.65c-.29-1.38-.66-2.74-1.24-4.02-2.59-5.66-8.98-9.09-15.15-7.98-5.2.93-8.54,4.02-10.34,8.92-.36.97-.69,2.06-.79,3.09h27.52Z"/>
</svg>