<?xml version="1.0" encoding="UTF-8"?>
<svg id="Livello_1" data-name="Livello 1" xmlns="http://www.w3.org/2000/svg" viewBox="0 0 46.88 47.9">
  <defs>
    <style>
      .cls-1 {
        fill: none;
      }

      .cls-2 {
        fill: #fff;
      }
    </style>
  </defs>
  <path class="cls-1" d="M12.79,9.27c-.67-.66-1.36-1.35-2.07-2.02-.46-.44-.82-.85-.6-1.61.06-.21-.33-.76-.58-.82-.26-.06-.82.24-.88.48-.16.64-.41.98-1.07,1.09-.48.08-.71.54-.5.97.14.28.63.63.84.56.72-.23,1.1.16,1.51.59.68.73,1.37,1.45,1.95,2.06.51-.46.92-.84,1.41-1.29Z"/>
  <path class="cls-2" d="M16.14,35.12c2.29.08,4.4.77,6.35,1.95.44.27.96.5,1.24.9,1.12,1.6,2.73,1.15,4.23,1.16.17,0,.39-.24.51-.42.78-1.15,2.08-1.5,3.18-.83,1.1.67,1.42,1.98.83,3.26-.1.21-.09.56.01.78.59,1.26.25,2.6-.85,3.25-1.12.66-2.39.3-3.18-.85-.14-.2-.44-.29-.67-.41-.08-.04-.19,0-.29,0-1.51-.15-2.75.16-3.99,1.3-1.88,1.73-4.29,2.52-6.82,2.68-2.16.13-3.91-.82-5.32-2.59-.17.16-.33.29-.46.45-2.49,2.79-6.7,2.88-9.14.21-2.56-2.81-2.3-7.06.64-9.43,2.23-1.79,4.76-2.86,7.65-2.88.26,0,.57-.13.76-.31.53-.48,1-1.02,1.51-1.51.57-.55,1.04-1.07,1.07-1.98.03-.9.9-1.66,1.78-1.83.95-.18,1.92.27,2.44,1.12.16.26.36.53.61.69.97.61,1.45,1.59,1.22,2.64-.22,1.03-1.09,1.72-2.19,1.88-.42.06-.81.33-1.22.5.03.1.06.19.09.29ZM16.92,36.72c-3.12-.03-5.23,2.09-5.23,4.81,0,2.7,2.14,4.9,4.82,4.79,2.53-.11,4.78-1.06,6.68-2.79,1.42-1.29,1.41-2.71-.01-4.02-1.89-1.74-4.17-2.57-6.25-2.79ZM9.32,35.21c-2.14.15-4.4,1.07-6.28,2.8-1.46,1.34-1.9,3.1-1.27,5.03.62,1.9,1.97,3.01,3.89,3.26,2,.26,3.54-.62,4.64-2.31.12-.18.15-.48.1-.69-.61-2.36-.08-4.43,1.53-6.2.33-.36.29-.64.05-.98-.57-.8-1.4-.91-2.67-.91ZM13.58,35.43c.74-.79,1.46-1.63,2.26-2.38.25-.24.71-.35,1.07-.33.51.02.89-.05,1.02-.58.14-.56-.13-.93-.67-1.02-.5-.08-.77-.32-.84-.85-.08-.55-.44-.84-.99-.71-.52.13-.71.53-.55,1.03.17.52-.03.85-.37,1.18-.79.76-1.57,1.53-2.31,2.25.49.5.89.9,1.39,1.42ZM25.77,42.33c.87,0,1.72.02,2.56,0,.73-.02,1.28.08,1.41,1,.03.24.52.58.78.56.26-.02.69-.42.69-.65,0-.3-.29-.76-.56-.87-.45-.18-.92-.25-.91-.86,0-.57.48-.63.88-.83.28-.14.59-.54.6-.83,0-.24-.43-.67-.66-.67-.29,0-.77.34-.81.6-.14.78-.59.94-1.25.93-.89-.02-1.79,0-2.71,0v1.63Z"/>
  <path class="cls-1" d="M24.46,15.98c-.7,0-1.41-.04-2.11.01-.55.04-.78-.22-.96-.69-.71-1.88-.23-4.04,1.28-5.36,1.76-1.54,3.83-2.41,6.12-2.71.47-.06.97.02,1.44.09.95.15,1.48.78,1.67,1.72.03.15.04.3.05.44q.1,1.61-1.31,2.31c-.41.21-.83.4-1.24.63-1.13.63-1.87,1.58-2.01,2.92-.05.55-.28.65-.74.63-.73-.02-1.46,0-2.18,0Z"/>
  <path class="cls-1" d="M9.39,17.53h35.9v1.58H9.39v-1.58Z"/>
  <path class="cls-1" d="M42.97,15.93h-14.11c0-.88.29-1.59,1-1.96,3.48-1.83,6.97-3.61,10.62-5.48-.36,1.74-1.21,2.94-2.45,3.88-1.27.96-2.73,1.25-4.33,1.22v1.48c1.83.18,3.43-.41,5.04-1.27,1.5-.8,3.88-.35,4.24,1.76.02.09,0,.19,0,.37Z"/>
  <path class="cls-1" d="M20,15.97c-2.28,0-4.42,0-6.55-.01-.16,0-.45-.2-.47-.33-.14-1.15-.35-2.3-.3-3.44.05-1.01.79-1.58,1.83-1.71,1.78-.22,3.41.34,4.97,1.11.12.06.25.32.22.45-.31,1.29-.18,2.55.28,3.94Z"/>
  <path class="cls-1" d="M33.11,7.45c-.46-.51-.82-.9-1.27-1.39.53-.55,1.17-1.2,1.81-1.86.5-.5,1.05-.93.76-1.83-.06-.18.38-.74.64-.77.26-.04.77.3.84.56.16.62.43.9,1.04,1.05.24.06.53.57.53.88,0,.48-.41.77-.86.64-.65-.19-1.05.08-1.46.54-.67.75-1.37,1.46-2.04,2.18Z"/>
  <path class="cls-2" d="M46.87,17.74c-.02-1.72-.02-1.74-1.69-1.75-.49,0-.67-.16-.73-.67-.14-1.15-.7-2.08-1.67-2.66-.61-.36-1.31-.56-2.02-.85.09-.16.2-.37.32-.58.66-1.16,1.04-2.4,1.08-3.75.03-1-.45-1.33-1.32-.89-.87.43-1.74.89-2.61,1.33-1.54.78-3.08,1.56-4.66,2.37-.17-.7-.08-1.2.43-1.66.66-.59,1.22-1.28,1.87-1.88.24-.22.61-.39.93-.42,1.06-.1,1.9-.75,2.17-1.79.26-1.01-.18-2.06-1.06-2.64-.29-.19-.56-.45-.75-.74-.58-.88-1.42-1.29-2.44-1.11-.92.16-1.76.9-1.81,1.88-.04.86-.47,1.35-1,1.86-.34.32-.68.64-.97,1.01-.52.67-1.15.86-2,.93-3.44.27-6.34,1.71-8.51,4.41-1.32-.39-2.63-1.08-3.92-1.08-1.9,0-3.02-1.02-4.12-2.29-.08-.09-.2-.16-.25-.27-.16-.33-.39-.66-.43-1.02-.13-1.11-.83-2.01-1.84-2.24-1-.23-1.97.24-2.55,1.17-.18.29-.47.54-.76.73-.79.55-1.21,1.49-1.04,2.45.16.9.88,1.8,1.78,1.82.94.02,1.43.58,1.99,1.15.46.48.93.95,1.39,1.43.13.14.33.3.34.46.12,1.15.19,2.3.29,3.52-.81,0-1.64,0-2.46,0-.78,0-1.01.24-1.02,1.01-.01.9,0,1.79,0,2.69,0,.79.23,1.03,1,1.04.72.02,1.45,0,2.22,0,.32,2.19.63,4.3.95,6.48.51-.07.97-.14,1.49-.22-.3-2.1-.59-4.13-.88-6.19h29.48c-.28,1.97-.55,3.86-.82,5.75-.91,6.34-1.84,12.68-2.72,19.02-.09.67-.36.77-.93.77-4.16-.02-8.32-.01-12.48-.01h-.78c-.33,1.46-.25,1.57,1.08,1.57,4.4,0,8.8,0,13.21,0,.89,0,1.12-.2,1.25-1.09,1.18-8.26,2.37-16.52,3.55-24.77.19-1.32.18-1.32,1.46-1.32.32,0,.63.01.95,0,.75-.03,1.01-.28,1.02-1.05.01-.65,0-1.29,0-1.94ZM40.48,8.49c-.36,1.74-1.21,2.94-2.45,3.88-1.27.96-2.73,1.25-4.33,1.22v1.48c1.83.18,3.43-.41,5.04-1.27,1.5-.8,3.88-.35,4.24,1.76.02.09,0,.19,0,.37h-14.11c0-.88.29-1.59,1-1.96,3.48-1.83,6.97-3.61,10.62-5.48ZM33.65,4.2c.5-.5,1.05-.93.76-1.83-.06-.18.38-.74.64-.77.26-.04.77.3.84.56.16.62.43.9,1.04,1.05.24.06.53.57.53.88,0,.48-.41.77-.86.64-.65-.19-1.05.08-1.46.54-.67.75-1.37,1.46-2.04,2.18-.46-.51-.82-.9-1.27-1.39.53-.55,1.17-1.2,1.81-1.86ZM22.66,9.94c1.76-1.54,3.83-2.41,6.12-2.71.47-.06.97.02,1.44.09.95.15,1.48.78,1.67,1.72.03.15.04.3.05.44q.1,1.61-1.31,2.31c-.41.21-.83.4-1.24.63-1.13.63-1.87,1.58-2.01,2.92-.05.55-.28.65-.74.63-.73-.02-1.46,0-2.18,0-.7,0-1.41-.04-2.11.01-.55.04-.78-.22-.96-.69-.71-1.88-.23-4.04,1.28-5.36ZM14.52,10.47c1.78-.22,3.41.34,4.97,1.11.12.06.25.32.22.45-.31,1.29-.18,2.55.28,3.94-2.28,0-4.42,0-6.55-.01-.16,0-.45-.2-.47-.33-.14-1.15-.35-2.3-.3-3.44.05-1.01.79-1.58,1.83-1.71ZM9.43,8.51c-.41-.44-.8-.82-1.51-.59-.22.07-.71-.28-.84-.56-.21-.42.02-.89.5-.97.67-.1.92-.45,1.07-1.09.06-.24.62-.54.88-.48.26.06.65.61.58.82-.22.75.14,1.17.6,1.61.71.68,1.4,1.37,2.07,2.02-.49.45-.9.83-1.41,1.29-.58-.61-1.26-1.33-1.95-2.06ZM45.28,19.11H9.39v-1.58h35.9v1.58Z"/>
</svg>