<?xml version="1.0" encoding="UTF-8"?>
<svg id="Livello_1" data-name="Livello 1" xmlns="http://www.w3.org/2000/svg" viewBox="0 0 34.52 29.82">
  <defs>
    <style>
      .cls-1 {
        fill: none;
        stroke: #fff;
        stroke-miterlimit: 10;
        stroke-width: 1px;
      }
    </style>
  </defs>
  <path class="cls-1" d="M1.63,10.35c-.04-1.65.54-3.01,1.49-4.23,1.75-2.25,4.12-3.58,6.78-4.43C15.45-.06,20.96.08,26.34,2.36c2.53,1.07,4.74,2.63,5.94,5.24.38.82.52,1.75.81,2.76H1.63Z"/>
  <path class="cls-1" d="M31.13,23.64c.93-.09,1.1.38,1.12,1.16.04,2.35-1.78,4.46-4.15,4.48-7.37.06-14.74.08-22.11,0-2.85-.03-4.75-2.91-3.83-5.61,3.28,0,6.59,0,9.91,0h19.07Z"/>
  <path class="cls-1" d="M13.95,15.14c0,1.07,0,1.97,0,2.86,0,1.12-.96,2.15-2.11,1.45-1.17-.71-.55-2.69-.71-3.81-.06-.38-.48-1.08-.92-.77-.44.31-.5.82-.51,1.31-.02.55-.27,1.66-1,1.68-.68.02-.97-1.02-1-1.53,0-.05,0-.33,0-.61,0-.32-.26-.58-.58-.58-1.64,0-3.19,0-4.75,0-1.04,0-1.78-.36-1.85-1.5-.06-.98.65-1.55,1.89-1.58.12,0,.25,0,.37,0,2.5,0,4.99,0,7.49,0,7.16,0,14.33,0,21.49,0,.29,0,.57,0,.86.02.93.08,1.43.64,1.42,1.54-.01.9-.53,1.43-1.46,1.49-.37.02-.74.02-1.1.02-5.32,0-10.64,0-15.97,0-.44,0-.89,0-1.54,0Z"/>
  <path class="cls-1" d="M6.86,16.95c-1.14,0-2.3-.02-3.46,0-1.77.04-2.94,1.1-2.9,2.57.04,1.51,1.18,2.45,2.98,2.46,2.78,0,5.56.06,8.34-.01h19.22c1.19-.04,1.96-.74,2.26-1.85.3-1.07-.03-2.06-.97-2.65-.54-.34-1.28-.49-1.94-.49l-15.63.09"/>
</svg>