<?xml version="1.0" encoding="UTF-8"?>
<svg id="Livello_1" data-name="Livello 1" xmlns="http://www.w3.org/2000/svg" viewBox="0 0 51.28 28.11">
  <defs>
    <style>
      .cls-1 {
        fill: none;
      }

      .cls-2 {
        fill: #fff;
      }
    </style>
  </defs>
  <path class="cls-2" d="M49.91,23.51c-.48.35-.98.69-1.44,1.07-.13.11-.18.37-.19.56-.13,1.65-.98,2.47-2.68,2.49-7.11.09-14.23.17-21.34.26-5.8.07-11.6.15-17.4.22-1.02.01-2.03-.07-3.05-.09-1.32-.03-2.52-.33-3.1-1.67-.56-1.28-.03-2.3.86-3-.13-.77-.23-1.42-.35-2.07-.03-.14-.06-.32-.16-.41-1.03-.92-1.29-2.06-.83-3.31.5-1.34,1.59-1.95,3.06-2.01.17-1.09.43-2.16,1.83-2.59-.2-.55-.43-1.05-.55-1.57-.43-1.85.29-3.14,2.09-3.73.69-.22,1.07-.62,1.19-1.34.08-.5.22-1,.41-1.48.74-1.87,2.11-2.73,4.14-2.59.86.06,1.73.31,2.57.25.68-.05,1.52-.26,1.98-.7,2.08-2.02,4.05-2.02,5.86.1.78-.11,1.53-.19,2.27-.35.21-.04.4-.27.57-.44,1.68-1.69,4.01-1.47,5.32.55,1.36-.41,2.58-.23,3.48.99,2.72-.91,3.86-.4,4.2,1.61.77.43,1.38.82,2.02,1.12.29.14.66.16.99.14.85-.05,1.7-.16,2.56-.24.28.16.56.31.84.47.21.63.4,1.26.64,1.88.1.25.23.57.44.68,1.84.97,2.08,1.46,1.69,3.57-.04.24-.06.51,0,.74.24.78.52,1.54.82,2.41,3.05.98,3.32,2.02,1.38,5.1.13.99.23,1.76.33,2.53l-.47.84ZM7.66,16.84c-1.46,2.54-2.32,5.26-2.63,8.17-.16,1.54.16,1.89,1.73,1.87,12.85-.16,25.7-.32,38.55-.48,1.53-.02,1.87-.4,1.64-1.95-.9-6.2-3.9-11.16-9.06-14.7-10.15-6.97-24.17-3.64-30.23,7.1ZM6.26,12.68c1.67-.02,2.08-.34,2.39-1.82.08-.41.17-.81.23-1.23.22-1.53,1.03-2.67,2.51-3.11,1.52-.45,3.1-.96,4.66-.95,2.47.01,4.17-1.14,5.7-2.82-.88-1.35-2.4-1.65-3.4-.51-1.31,1.5-2.86,1.79-4.68,1.43-.53-.1-1.08-.16-1.62-.17-1.34-.02-2.19.58-2.63,1.83-.14.39-.26.79-.34,1.2-.23,1.17-.84,1.96-2.03,2.32-1.14.35-1.51,1.04-1.28,2.21.11.56.33,1.1.5,1.62ZM41.11,10.67c-.22-.71-.4-1.19-.52-1.68-.12-.5-.18-1.01-.28-1.51-.28-1.32-.79-1.7-2.15-1.66-.8.02-1.61.1-2.4.02-1.1-.11-1.9-.66-2.21-1.83-.32-1.24-.99-1.59-2.22-1.15-.72.26-1.39.66-2.1.94-1.3.51-2.56.61-3.62-.56-.51-.56-1.17-.63-1.76-.26-1.09.68-2.11,1.46-3.17,2.21l.13.25c7.57-1.59,14.3.15,20.29,5.23ZM48.14,23.3c1.22-.9,1.29-1.5.38-2.57-.1-.12-.19-.26-.31-.37-1.42-1.28-1.75-2.84-1.22-4.64.07-.24.12-.5.16-.75.18-1.26-.24-1.94-1.46-2.33-1.23-.39-2.46-.76-3.63-1.12,3.7,4.68,4.04,4.89,6.09,11.78ZM46.61,11.54c.36-1.38.21-1.52-.97-2.13-.51-.26-.95-.93-1.12-1.5-.38-1.35-.6-1.57-1.99-1.28-.34.07-.67.16-.92.22-.38,3.75,2.32,4.18,5,4.7ZM8.16,13.77c-.92.13-1.58.2-2.24.31-1.04.18-1.35.56-1.34,1.63,0,.35.05.7.11,1.05.28,1.66.13,3.12-1.64,3.97-.3.14-.58.75-.53,1.08.06.34.51.65.85.89.17.13.47.08.74.11.68-3.27,2.02-6.21,4.05-9.06ZM9.82,11.49c2.19-1.56,4.43-3.17,6.68-4.77-.49.02-1.02.01-1.55.07-3.66.44-4.66,1.35-5.13,4.68,0,.06.01.12,0,.02ZM3.37,16.86c-.86-.08-1.6.19-1.95,1-.31.73-.24,1.48.41,2.06,1.79-.99,1.97-1.35,1.54-3.06ZM3.74,26.72c.03-.95.06-1.83.09-2.71-1.38.08-2.16.64-2.1,1.47.05.82.82,1.29,2.02,1.24ZM49.07,19.33c.56-.7,1.23-1.38.73-2.24-.25-.44-.98-.6-1.52-.91-.49,1.5-.3,2.22.79,3.14ZM29.71,2.21c-.22-.77-.78-.94-1.41-.94-.78,0-1.48.23-1.87.99.92.92,1.61.91,3.27-.05ZM37.21,4.79c.09-.13.19-.26.28-.38-.24-.31-.43-.77-.74-.89-.7-.28-1.34,0-2.09.83,1.01.18,1.78.31,2.55.44Z"/>
  <path class="cls-1" d="M7.66,16.84c6.07-10.74,20.08-14.07,30.23-7.1,5.16,3.54,8.15,8.5,9.06,14.7.23,1.55-.11,1.93-1.64,1.95-12.85.16-25.7.32-38.55.48-1.57.02-1.89-.32-1.73-1.87.31-2.91,1.17-5.63,2.63-8.17ZM13.27,23.98c.05-.12.1-.25.15-.37-.21-.25-.39-.7-.62-.72-.89-.08-1.79-.08-2.68,0-.2.02-.36.53-.54.81.3.13.6.37.91.38.92.01,1.85-.06,2.78-.1ZM31.04,13.5c.98-.07,1.91-.12,2.85-.23.1-.01.27-.41.21-.54-.11-.22-.36-.51-.56-.52-.73-.05-1.47-.03-2.19.06-.21.02-.45.32-.55.55-.06.14.13.38.24.69ZM36.97,15.67c-.36-.34-.58-.73-.85-.77-.62-.1-1.28-.08-1.91,0-.22.03-.55.39-.55.59,0,.2.35.55.57.57.63.07,1.28.04,1.91,0,.19-.01.38-.18.83-.4ZM15.12,19.64c-.11-.17-.25-.62-.45-.64-.62-.09-1.27-.07-1.89.03-.13.02-.33.61-.23.84.19.47,2.2.4,2.57-.23ZM32.77,19.36c-.05-.16-.13-.62-.23-.62-.67-.05-1.36,0-2.03.06-.04,0-.14.55-.03.76.21.42,1.96.35,2.29-.2ZM18.68,21.24c-.89.22-1.58.39-2.27.56.11.26.23.74.33.74.69-.02,1.37-.13,2.04-.26.02,0-.05-.51-.1-1.05Z"/>
  <path class="cls-1" d="M6.26,12.68c-.16-.52-.38-1.06-.5-1.62-.24-1.17.14-1.86,1.28-2.21,1.19-.36,1.79-1.15,2.03-2.32.08-.41.2-.81.34-1.2.44-1.25,1.29-1.85,2.63-1.83.54,0,1.09.06,1.62.17,1.83.36,3.38.06,4.68-1.43.99-1.14,2.52-.84,3.4.51-1.53,1.69-3.23,2.83-5.7,2.82-1.55,0-3.14.5-4.66.95-1.47.44-2.28,1.58-2.51,3.11-.06.41-.14.82-.23,1.23-.3,1.48-.71,1.8-2.39,1.82Z"/>
  <path class="cls-1" d="M41.11,10.67c-5.99-5.08-12.71-6.82-20.29-5.23l-.13-.25c1.05-.74,2.08-1.53,3.17-2.21.58-.36,1.25-.29,1.76.26,1.06,1.16,2.32,1.07,3.62.56.72-.28,1.38-.68,2.1-.94,1.23-.44,1.9-.1,2.22,1.15.3,1.16,1.11,1.71,2.21,1.83.79.08,1.6,0,2.4-.02,1.36-.04,1.87.34,2.15,1.66.11.5.16,1.01.28,1.51.12.49.3.97.52,1.68Z"/>
  <path class="cls-1" d="M48.14,23.3c-2.05-6.89-2.39-7.1-6.09-11.78,1.17.36,2.4.73,3.63,1.12,1.22.39,1.63,1.07,1.46,2.33-.04.25-.08.51-.16.75-.53,1.79-.2,3.36,1.22,4.64.12.11.21.24.31.37.91,1.07.84,1.67-.38,2.57Z"/>
  <path class="cls-1" d="M46.61,11.54c-2.68-.51-5.38-.95-5-4.7.25-.06.58-.15.92-.22,1.39-.29,1.61-.07,1.99,1.28.16.57.61,1.24,1.12,1.5,1.18.61,1.33.75.97,2.13Z"/>
  <path class="cls-1" d="M8.16,13.77c-2.03,2.84-3.38,5.78-4.05,9.06-.27-.03-.57.01-.74-.11-.34-.24-.79-.55-.85-.89-.05-.34.23-.94.53-1.08,1.77-.85,1.92-2.31,1.64-3.97-.06-.35-.1-.7-.11-1.05-.01-1.07.3-1.45,1.34-1.63.66-.11,1.32-.19,2.24-.31Z"/>
  <path class="cls-1" d="M9.82,11.49c.01.1,0,.04,0-.02.48-3.33,1.47-4.25,5.13-4.68.53-.06,1.06-.05,1.55-.07-2.25,1.61-4.5,3.21-6.68,4.77Z"/>
  <path class="cls-1" d="M3.37,16.86c.43,1.71.26,2.07-1.54,3.06-.65-.58-.72-1.33-.41-2.06.35-.82,1.08-1.09,1.95-1Z"/>
  <path class="cls-1" d="M3.74,26.72c-1.2.04-1.97-.42-2.02-1.24-.05-.84.73-1.39,2.1-1.47-.03.88-.06,1.77-.09,2.71Z"/>
  <path class="cls-1" d="M49.07,19.33c-1.09-.93-1.28-1.65-.79-3.14.54.31,1.27.47,1.52.91.5.85-.17,1.54-.73,2.24Z"/>
  <path class="cls-1" d="M29.71,2.21c-1.67.96-2.36.97-3.27.05.39-.76,1.08-.99,1.87-.99.63,0,1.19.17,1.41.94Z"/>
  <path class="cls-1" d="M37.21,4.79c-.77-.13-1.53-.27-2.55-.44.76-.84,1.39-1.11,2.09-.83.31.12.5.58.74.89-.09.13-.19.26-.28.38Z"/>
  <path class="cls-2" d="M13.27,23.98c-.93.04-1.85.12-2.78.1-.3,0-.61-.24-.91-.38.18-.28.33-.79.54-.81.89-.09,1.79-.09,2.68,0,.23.02.41.47.62.72-.05.12-.1.25-.15.37Z"/>
  <path class="cls-2" d="M31.04,13.5c-.12-.31-.3-.55-.24-.69.1-.23.34-.52.55-.55.72-.08,1.46-.1,2.19-.06.2.01.46.3.56.52.06.13-.11.53-.21.54-.93.11-1.87.16-2.85.23Z"/>
  <path class="cls-2" d="M36.97,15.67c-.45.22-.63.39-.83.4-.64.04-1.28.08-1.91,0-.22-.03-.57-.37-.57-.57,0-.2.33-.56.55-.59.63-.08,1.28-.1,1.91,0,.27.04.49.43.85.77Z"/>
  <path class="cls-2" d="M15.12,19.64c-.37.62-2.38.7-2.57.23-.09-.23.1-.82.23-.84.62-.1,1.27-.12,1.89-.03.2.03.33.47.45.64Z"/>
  <path class="cls-2" d="M32.77,19.36c-.33.54-2.08.62-2.29.2-.1-.21-.01-.75.03-.76.67-.07,1.36-.11,2.03-.06.1,0,.17.47.23.62Z"/>
  <path class="cls-2" d="M18.68,21.24c.05.54.12,1.04.1,1.05-.68.13-1.36.24-2.04.26-.1,0-.22-.48-.33-.74.69-.17,1.39-.34,2.27-.56Z"/>
</svg>