<?xml version="1.0" encoding="UTF-8"?>
<svg id="Livello_1" data-name="Livello 1" xmlns="http://www.w3.org/2000/svg" viewBox="0 0 35.98 29.32">
  <defs>
    <style>
      .cls-1 {
        fill: #fff;
      }
    </style>
  </defs>
  <path class="cls-1" d="M21.12,11.82c1.39-.84,1.78-2.94.9-4.28-1.04-1.58-3.11-1.17-4.33-.09-.88.72-1.54,2.29-.8,3.31.78,1.07,3.06,1.76,4.24,1.05M20.5,11.22c-.78.27-2.24-.23-2.79-.77-.64-.63-.18-1.81.44-2.32.78-.69,2.1-1.3,3-.39s.65,3.04-.64,3.49"/>
  <path class="cls-1" d="M12.45,14.35c-1.29-.42-2.31.14-2.99,1.21-.04.04-.08.09-.1.15-.03.06-.05.12-.05.17-.37,1.25-.08,2.82,1.36,3.2,1.34.36,2.91-.61,3.36-1.89.43-1.23-.38-2.46-1.57-2.84M11.41,18.35c-1.31.11-1.67-1.27-1.31-2.29.41-.71.95-1.13,1.79-1.01.74.11,1.52.73,1.43,1.54-.09.86-1.06,1.68-1.91,1.75"/>
  <path class="cls-1" d="M24.89,19.38c1.1-1,1.16-2.52.1-3.58-1.15-1.13-2.7-.88-3.86.07-.01.01-.02.03-.03.04-.02.01-.03.02-.05.03-2.28,2.29,1.7,5.4,3.84,3.44M24.03,16.08c.97.57,1.23,1.73.45,2.58-1.4,1.5-4.39-.53-2.83-2.15.69-.55,1.55-.91,2.38-.42"/>
  <path class="cls-1" d="M24.65,11.75c.43.14.87.94.55,1.35-.32.41.29.94.62.53.63-.8.15-2.3-.82-2.62-.21-.07-.44-.02-.54.19-.09.18-.02.47.19.54"/>
  <path class="cls-1" d="M17.64,15.99c.33.41,1-.05.67-.46-.13-.17-.26-.31-.25-.54.01-.22.12-.39.33-.45.5-.15.23-.91-.27-.77-.44.13-.77.53-.85.98-.08.47.07.87.36,1.23"/>
  <path class="cls-1" d="M27.4,19.4c.33.4,1-.05.67-.46-.45-.55-.17-1.18.4-1.5.46-.26,0-.93-.46-.67-.93.53-1.33,1.76-.61,2.63"/>
  <path class="cls-1" d="M7.37,18.33c-.4-.06-.9-.5-.56-.92.33-.41-.29-.94-.62-.53-.73.9,0,2.09,1.04,2.25.52.08.66-.72.14-.8"/>
  <path class="cls-1" d="M13.69,10.56c.25.18.35.34.25.65-.09.26-.3.54-.6.51-.52-.06-.66.74-.14.8.68.08,1.24-.34,1.48-.96.25-.63.09-1.22-.45-1.62-.42-.31-.95.3-.53.62"/>
  <path class="cls-1" d="M16.9,18.19c-.6-.05-1.14.26-1.37.82-.19.48.54.84.74.35.11-.29.31-.39.62-.35.33.04.49.14.6.46.17.5.93.22.77-.27-.22-.64-.68-.95-1.36-1.01"/>
  <path class="cls-1" d="M35.67,20.64c.82-2.79-.12-5.28-1.27-7.82-1.24-2.76-2.56-5.25-4.62-7.51C28.11,3.44,25.52.65,22.94.06c-1.63-.37-3.01,1.02-3.18,2.6-2.36,2.57-5.4,4.42-8.01,6.73-3,2.67-6.02,5.27-9.15,7.79-.7.56-2.45,1.49-2.57,2.59,0,.02-.02.04-.02.06-.16,1.41.66,2.73,2.03,3.06,2.77.67,6.06.48,8.94.49-.19.51-.57.95-.28,1.6.54,1.2,1.52.55,2.03-.23.18-.28.33-.69.48-1.11.03,0,.05.02.08.02.58.04,1.16.08,1.74.13-.12.25-.27.49-.37.71-.29.62-.57,1.25-.77,1.91-.33,1.05-.6,3.08,1.11,2.91,2.06-.21,2.62-3.43,3.49-5.31,3.96-.17,7.94-.09,11.9-.29,2.56-.12,4.65-.3,5.28-3.07M26.62,3.37c1.75,1.5,3.35,3.2,4.64,5.11,1.81,2.68,3.95,6.67,3.87,10.18-.27-.24-.62-.41-1.09-.45-.9-.08-1.65.31-2.19.93-.24-2.85-1.97-5.54-3.4-7.93-2.04-3.39-4.56-6.4-7.89-8.56.26-3.63,4.73-.41,6.06.72M1.12,21.1c.56.15,1.23.13,1.73.19,1.68.2,3.38.43,5.07.51.88.04,2.78-.27,3.1.77-1.98.03-8.41.48-9.91-1.47M13.53,22.86c.14-.31.31-.59.52-.75.68-.52,1.13.22,1.18.87-.57-.04-1.13-.08-1.7-.12M15.23,28.34c-.54-.05-.68-1.01-.67-1.33.02-.35.27-.8.4-1.13.28-.71.66-1.38.95-2.08.49-1.18.53-2.81-1.16-2.87-1.45-.05-1.76,1.56-2.29,2.6-.25.5-.91,1.64-.9.29,0-.26.29-.52.35-.77.13-.5.13-.93-.21-1.33-.97-1.16-3.79-.72-5.08-.84-1.31-.12-4.27.06-5.14-.96-.57-.67-.25-.58.39-1.1.5-.4.99-.8,1.49-1.2,2.9-2.34,5.73-4.75,8.5-7.24,2.7-2.42,5.86-4.36,8.35-7.01,3.02,1.96,5.33,4.67,7.22,7.71,1.68,2.69,3.96,6.08,3.61,9.39-3.1.41-6.18.53-9.29.75-2.52.18-3.52,1.28-4.45,3.58-.21.51-1.3,3.62-2.07,3.54M27.02,22.96c-2.68.04-5.36.1-8.03.21.03-.03.05-.07.08-.1,1.33-1.45,3.78-1.01,5.55-1.09,2.27-.12,4.55-.41,6.8-.72.19.02.4-.07.45-.32.19-1.01.88-1.89,1.96-1.91.96-.02,1.18.67,1.05,1.48-.68,3.03-5.43,2.42-7.85,2.46"/>
  <path class="cls-1" d="M24.38,3.48c1.68,1.23,3.01,2.69,4.17,4.41.29.43.97-.03.67-.46-1.21-1.78-2.56-3.29-4.31-4.57-.42-.31-.96.31-.53.62"/>
  <path class="cls-1" d="M29.64,9.47c.47.22.82-.51.35-.74-.47-.22-.82.51-.35.74"/>
</svg>